<svg xmlns="http://www.w3.org/2000/svg" width="1200" height="820" viewBox="0 0 1200 820">
<rect width="100%" height="100%" fill="#fbfbfd"/>
<style>text{font-family:-apple-system,BlinkMacSystemFont,Segoe UI,Arial,sans-serif;fill:#172033}.title{font-size:25px;font-weight:700}.sub{font-size:16px}.axis{font-size:13px;fill:#526070}.legend{font-size:14px}.note{font-size:14px;fill:#5c2330}.grid{stroke:#d9dde6;stroke-width:1}.axisline{stroke:#8c96a8;stroke-width:1.4}.dash{stroke-dasharray:7 7}</style>
<text class="title" x="90" y="36">Текущая модель углеводов AIMI: почему “активных” может быть слишком много</text>
<rect x="292.5" y="70" width="135.0" height="310" fill="#e84d5b" opacity="0.08"/>
<rect x="832.5" y="70" width="202.5" height="310" fill="#2f7ed8" opacity="0.08"/>
<line class="grid" x1="90.0" y1="70" x2="90.0" y2="380"/>
<text class="axis" x="80.0" y="402">0</text>
<line class="grid" x1="225.0" y1="70" x2="225.0" y2="380"/>
<text class="axis" x="215.0" y="402">30</text>
<line class="grid" x1="360.0" y1="70" x2="360.0" y2="380"/>
<text class="axis" x="350.0" y="402">60</text>
<line class="grid" x1="495.0" y1="70" x2="495.0" y2="380"/>
<text class="axis" x="485.0" y="402">90</text>
<line class="grid" x1="630.0" y1="70" x2="630.0" y2="380"/>
<text class="axis" x="620.0" y="402">120</text>
<line class="grid" x1="765.0" y1="70" x2="765.0" y2="380"/>
<text class="axis" x="755.0" y="402">150</text>
<line class="grid" x1="900.0" y1="70" x2="900.0" y2="380"/>
<text class="axis" x="890.0" y="402">180</text>
<line class="grid" x1="1035.0" y1="70" x2="1035.0" y2="380"/>
<text class="axis" x="1025.0" y="402">210</text>
<line class="grid" x1="1170.0" y1="70" x2="1170.0" y2="380"/>
<text class="axis" x="1160.0" y="402">240</text>
<line class="grid" x1="90" y1="380.0" x2="1170" y2="380.0"/>
<text class="axis" x="45" y="385.0">0 г</text>
<line class="grid" x1="90" y1="318.0" x2="1170" y2="318.0"/>
<text class="axis" x="45" y="323.0">5 г</text>
<line class="grid" x1="90" y1="256.0" x2="1170" y2="256.0"/>
<text class="axis" x="45" y="261.0">10 г</text>
<line class="grid" x1="90" y1="194.0" x2="1170" y2="194.0"/>
<text class="axis" x="45" y="199.0">15 г</text>
<line class="grid" x1="90" y1="132.0" x2="1170" y2="132.0"/>
<text class="axis" x="45" y="137.0">20 г</text>
<line class="grid" x1="90" y1="70.0" x2="1170" y2="70.0"/>
<text class="axis" x="45" y="75.0">25 г</text>
<line class="axisline" x1="90" y1="380" x2="1170" y2="380"/><line class="axisline" x1="90" y1="70" x2="90" y2="380"/>
<text class="sub" x="90" y="62">1) Что activeEpisode может отдавать как активные углеводы для одного приема пищи, пример 25 г</text>
<polyline points="90.0,70.0 112.5,70.0 135.0,70.0 157.5,70.0 180.0,70.0 202.5,70.0 225.0,70.0 247.5,70.0 270.0,70.0 292.5,70.0 315.0,70.0 337.5,70.0 360.0,70.0 382.5,70.0 405.0,70.0 427.5,70.0 450.0,380.0 472.5,380.0 495.0,380.0 517.5,380.0 540.0,380.0 562.5,380.0 585.0,380.0 607.5,380.0 630.0,380.0 652.5,380.0 675.0,380.0 697.5,380.0 720.0,380.0 742.5,380.0 765.0,380.0 787.5,380.0 810.0,380.0 832.5,380.0 855.0,380.0 877.5,380.0 900.0,380.0 922.5,380.0 945.0,380.0 967.5,380.0 990.0,380.0 1012.5,380.0 1035.0,380.0 1057.5,380.0 1080.0,380.0 1102.5,380.0 1125.0,380.0 1147.5,380.0 1170.0,380.0" fill="none" stroke="#e84d5b" stroke-width="4"/>
<polyline points="90.0,70.0 112.5,70.0 135.0,70.0 157.5,70.0 180.0,70.0 202.5,70.0 225.0,70.0 247.5,70.0 270.0,70.0 292.5,70.0 315.0,70.0 337.5,70.0 360.0,70.0 382.5,70.0 405.0,70.0 427.5,70.0 450.0,70.0 472.5,70.0 495.0,70.0 517.5,70.0 540.0,70.0 562.5,70.0 585.0,70.0 607.5,70.0 630.0,70.0 652.5,70.0 675.0,70.0 697.5,70.0 720.0,70.0 742.5,70.0 765.0,70.0 787.5,70.0 810.0,70.0 832.5,70.0 855.0,70.0 877.5,70.0 900.0,70.0 922.5,70.0 945.0,70.0 967.5,70.0 990.0,70.0 1012.5,70.0 1035.0,70.0 1057.5,380.0 1080.0,380.0 1102.5,380.0 1125.0,380.0 1147.5,380.0 1170.0,380.0" fill="none" stroke="#2f7ed8" stroke-width="4"/>
<polyline points="90.0,70.0 112.5,104.4 135.0,138.9 157.5,173.3 180.0,207.8 202.5,242.2 225.0,276.7 247.5,311.1 270.0,345.6 292.5,380.0 315.0,380.0 337.5,380.0 360.0,380.0 382.5,380.0 405.0,380.0 427.5,380.0 450.0,380.0 472.5,380.0 495.0,380.0 517.5,380.0 540.0,380.0 562.5,380.0 585.0,380.0 607.5,380.0 630.0,380.0 652.5,380.0 675.0,380.0 697.5,380.0 720.0,380.0 742.5,380.0 765.0,380.0 787.5,380.0 810.0,380.0 832.5,380.0 855.0,380.0 877.5,380.0 900.0,380.0 922.5,380.0 945.0,380.0 967.5,380.0 990.0,380.0 1012.5,380.0 1035.0,380.0 1057.5,380.0 1080.0,380.0 1102.5,380.0 1125.0,380.0 1147.5,380.0 1170.0,380.0" fill="none" stroke="#e84d5b" stroke-width="2.5" class="dash" opacity="0.75"/>
<polyline points="90.0,70.0 112.5,79.4 135.0,88.8 157.5,98.2 180.0,107.6 202.5,117.0 225.0,126.4 247.5,135.8 270.0,145.2 292.5,154.5 315.0,163.9 337.5,173.3 360.0,182.7 382.5,192.1 405.0,201.5 427.5,210.9 450.0,220.3 472.5,229.7 495.0,239.1 517.5,248.5 540.0,257.9 562.5,267.3 585.0,276.7 607.5,286.1 630.0,295.5 652.5,304.8 675.0,314.2 697.5,323.6 720.0,333.0 742.5,342.4 765.0,351.8 787.5,361.2 810.0,370.6 832.5,380.0 855.0,380.0 877.5,380.0 900.0,380.0 922.5,380.0 945.0,380.0 967.5,380.0 990.0,380.0 1012.5,380.0 1035.0,380.0 1057.5,380.0 1080.0,380.0 1102.5,380.0 1125.0,380.0 1147.5,380.0 1170.0,380.0" fill="none" stroke="#2f7ed8" stroke-width="2.5" class="dash" opacity="0.75"/>
<line x1="690" y1="92" x2="732" y2="92" stroke="#e84d5b" stroke-width="4"/><text class="legend" x="740" y="97">Быстрые: фактически сейчас, 25 г держатся до 75 мин</text>
<line x1="690" y1="115" x2="732" y2="115" stroke="#2f7ed8" stroke-width="4"/><text class="legend" x="740" y="120">Обычные: фактически сейчас, 25 г держатся до 210 мин</text>
<line x1="690" y1="138" x2="732" y2="138" stroke="#e84d5b" stroke-width="4" class="dash"/><text class="legend" x="740" y="143">Быстрые: ожидаемое линейное разложение до 45 мин</text>
<line x1="690" y1="161" x2="732" y2="161" stroke="#2f7ed8" stroke-width="4" class="dash"/><text class="legend" x="740" y="166">Обычные: ожидаемое линейное разложение до 165 мин</text>
<path d="M 369.0 82.4 C 414.0 144.4, 450.0 156.8, 495.0 181.6" fill="none" stroke="#9b1d2c" stroke-width="2" marker-end="url(#arrowRed)"/>
<text class="sub" x="90" y="450">2) Как углеводы поднимают прогноз: распределение carb-эффекта по 5-мин шагам</text>
<line class="grid" x1="90.0" y1="470" x2="90.0" y2="780"/>
<text class="axis" x="80.0" y="802">0</text>
<line class="grid" x1="225.0" y1="470" x2="225.0" y2="780"/>
<text class="axis" x="215.0" y="802">30</text>
<line class="grid" x1="360.0" y1="470" x2="360.0" y2="780"/>
<text class="axis" x="350.0" y="802">60</text>
<line class="grid" x1="495.0" y1="470" x2="495.0" y2="780"/>
<text class="axis" x="485.0" y="802">90</text>
<line class="grid" x1="630.0" y1="470" x2="630.0" y2="780"/>
<text class="axis" x="620.0" y="802">120</text>
<line class="grid" x1="765.0" y1="470" x2="765.0" y2="780"/>
<text class="axis" x="755.0" y="802">150</text>
<line class="grid" x1="900.0" y1="470" x2="900.0" y2="780"/>
<text class="axis" x="890.0" y="802">180</text>
<line class="grid" x1="1035.0" y1="470" x2="1035.0" y2="780"/>
<text class="axis" x="1025.0" y="802">210</text>
<line class="grid" x1="1170.0" y1="470" x2="1170.0" y2="780"/>
<text class="axis" x="1160.0" y="802">240</text>
<line class="grid" x1="90" y1="780.0" x2="1170" y2="780.0"/>
<text class="axis" x="38" y="785.0">0%</text>
<line class="grid" x1="90" y1="735.7" x2="1170" y2="735.7"/>
<text class="axis" x="38" y="740.7">2%</text>
<line class="grid" x1="90" y1="691.4" x2="1170" y2="691.4"/>
<text class="axis" x="38" y="696.4">4%</text>
<line class="grid" x1="90" y1="647.1" x2="1170" y2="647.1"/>
<text class="axis" x="38" y="652.1">6%</text>
<line class="grid" x1="90" y1="602.9" x2="1170" y2="602.9"/>
<text class="axis" x="38" y="607.9">8%</text>
<line class="grid" x1="90" y1="558.6" x2="1170" y2="558.6"/>
<text class="axis" x="38" y="563.6">10%</text>
<line class="grid" x1="90" y1="514.3" x2="1170" y2="514.3"/>
<text class="axis" x="38" y="519.3">12%</text>
<line class="grid" x1="90" y1="470.0" x2="1170" y2="470.0"/>
<text class="axis" x="38" y="475.0">14%</text>
<line class="axisline" x1="90" y1="780" x2="1170" y2="780"/><line class="axisline" x1="90" y1="470" x2="90" y2="780"/>
<polyline points="90.0,780.0 112.5,494.6 135.0,466.6 157.5,456.6 180.0,466.6 202.5,494.6 225.0,535.9 247.5,583.9 270.0,631.9 292.5,675.0 315.0,780.0 337.5,780.0 360.0,780.0 382.5,780.0 405.0,780.0 427.5,780.0 450.0,780.0 472.5,780.0 495.0,780.0 517.5,780.0 540.0,780.0 562.5,780.0 585.0,780.0 607.5,780.0 630.0,780.0 652.5,780.0 675.0,780.0 697.5,780.0 720.0,780.0 742.5,780.0 765.0,780.0 787.5,780.0 810.0,780.0 832.5,780.0 855.0,780.0 877.5,780.0 900.0,780.0 922.5,780.0 945.0,780.0 967.5,780.0 990.0,780.0 1012.5,780.0 1035.0,780.0 1057.5,780.0 1080.0,780.0 1102.5,780.0 1125.0,780.0 1147.5,780.0 1170.0,780.0" fill="none" stroke="#e84d5b" stroke-width="4"/>
<polyline points="90.0,780.0 112.5,707.8 135.0,701.8 157.5,696.0 180.0,690.7 202.5,686.0 225.0,681.9 247.5,678.7 270.0,676.3 292.5,674.8 315.0,674.3 337.5,674.8 360.0,676.3 382.5,678.7 405.0,681.9 427.5,686.0 450.0,690.7 472.5,696.0 495.0,701.8 517.5,707.8 540.0,713.9 562.5,720.2 585.0,726.3 607.5,732.2 630.0,737.9 652.5,743.3 675.0,748.3 697.5,752.8 720.0,757.0 742.5,760.6 765.0,763.9 787.5,766.7 810.0,769.1 832.5,771.2 855.0,780.0 877.5,780.0 900.0,780.0 922.5,780.0 945.0,780.0 967.5,780.0 990.0,780.0 1012.5,780.0 1035.0,780.0 1057.5,780.0 1080.0,780.0 1102.5,780.0 1125.0,780.0 1147.5,780.0 1170.0,780.0" fill="none" stroke="#2f7ed8" stroke-width="4"/>
<line x1="650" y1="500" x2="692" y2="500" stroke="#e84d5b" stroke-width="4"/><text class="legend" x="700" y="505">Быстрые: пик 15 мин, вклад заканчивается к 45 мин</text>
<line x1="650" y1="525" x2="692" y2="525" stroke="#2f7ed8" stroke-width="4"/><text class="legend" x="700" y="530">Обычные: пик 50 мин, вклад растянут до 165 мин</text>
<text class="axis" x="560.0" y="802">минут после еды</text>
<text class="note" x="90" y="405">Главная странность: выбранный тип еды остается активным весь active window, а для одного эпизода сейчас возвращаются полные carbs, не остаток.</text>
<defs><marker id="arrowRed" markerWidth="10" markerHeight="10" refX="8" refY="3" orient="auto" markerUnits="strokeWidth"><path d="M0,0 L0,6 L9,3 z" fill="#9b1d2c"/></marker></defs>
</svg>